<svg width="7421" height="7242" viewBox="0 0 7421 7242" fill="none" xmlns="http://www.w3.org/2000/svg">
<path fill-rule="evenodd" clip-rule="evenodd" d="M5067.26 2839.13L3710.33 2055.7L2353.4 2839.13V4405.97L3710.33 5189.39L5067.26 4405.97V2839.13ZM4728.03 3034.98L3710.33 2447.41L2692.64 3034.98V4210.12L3710.33 4797.68L4728.03 4210.12V3034.98Z" fill="black"/>
<path fill-rule="evenodd" clip-rule="evenodd" d="M3541.07 2350.27L4898 3133.69L6254.93 2350.27V783.423L4898 0.000195277L3541.07 783.423L3541.07 2350.27ZM3880.3 2154.41L4898 2741.98L5915.7 2154.41L5915.7 979.279L4898 391.712L3880.3 979.279L3880.3 2154.41Z" fill="black"/>
<path fill-rule="evenodd" clip-rule="evenodd" d="M3879.59 4891.69L2522.66 4108.27L1165.73 4891.69V6458.54L2522.66 7241.96L3879.59 6458.54V4891.69ZM3540.36 5087.55L2522.66 4499.98L1504.97 5087.55V6262.68L2522.66 6850.25L3540.36 6262.68V5087.55Z" fill="black"/>
<path fill-rule="evenodd" clip-rule="evenodd" d="M6254.93 4891.69L4898 4108.27L3541.07 4891.69V6458.54L4898 7241.96L6254.93 6458.54V4891.69ZM5915.7 5087.55L4898 4499.98L3880.3 5087.55V6262.68L4898 6850.25L5915.7 6262.68V5087.55Z" fill="black"/>
<path fill-rule="evenodd" clip-rule="evenodd" d="M7420.66 2823.46L6063.73 2040.03L4706.81 2823.46V4390.3L6063.73 5173.73L7420.66 4390.3V2823.46ZM7081.43 3019.31L6063.73 2431.75L5046.04 3019.31V4194.45L6063.73 4782.02L7081.43 4194.45V3019.31Z" fill="black"/>
<path fill-rule="evenodd" clip-rule="evenodd" d="M1165.73 2350.27L2522.66 3133.69L3879.59 2350.27L3879.59 783.423L2522.66 0.000195277L1165.73 783.423L1165.73 2350.27ZM1504.97 2154.41L2522.66 2741.98L3540.36 2154.41L3540.36 979.279L2522.66 391.712L1504.97 979.279L1504.97 2154.41Z" fill="black"/>
<path fill-rule="evenodd" clip-rule="evenodd" d="M-0.000488281 4418.51L1356.93 5201.93L2713.86 4418.51L2713.86 2851.66L1356.93 2068.24L-0.000488281 2851.66L-0.000488281 4418.51ZM339.232 4222.65L1356.93 4810.22L2374.62 4222.65L2374.62 3047.52L1356.93 2459.95L339.232 3047.52L339.232 4222.65Z" fill="black"/>
</svg>
