<svg width="7497" height="7317" viewBox="0 0 7497 7317" fill="none" xmlns="http://www.w3.org/2000/svg">
<path fill-rule="evenodd" clip-rule="evenodd" d="M5119.39 2868.87L3748.5 2077.39L2377.61 2868.87V4451.83L3748.5 5243.32L5119.39 4451.83V2868.87ZM4776.67 3066.74L3748.5 2473.13L2720.33 3066.74V4253.96L3748.5 4847.57L4776.67 4253.96V3066.74Z" fill="white"/>
<path fill-rule="evenodd" clip-rule="evenodd" d="M3577.5 2374.98L4948.39 3166.47L6319.28 2374.98V792.018L4948.39 0.534928L3577.5 792.018L3577.5 2374.98ZM3920.22 2177.11L4948.39 2770.72L5976.55 2177.11V989.888L4948.39 396.276L3920.22 989.888L3920.22 2177.11Z" fill="white"/>
<path fill-rule="evenodd" clip-rule="evenodd" d="M3919.5 4942.55L2548.61 4151.07L1177.72 4942.55V6525.52L2548.61 7317L3919.5 6525.52V4942.55ZM3576.78 5140.42L2548.61 4546.81L1520.45 5140.42V6327.65L2548.61 6921.26L3576.78 6327.65V5140.42Z" fill="white"/>
<path fill-rule="evenodd" clip-rule="evenodd" d="M6319.28 4942.55L4948.39 4151.07L3577.5 4942.55V6525.52L4948.39 7317L6319.28 6525.52V4942.55ZM5976.55 5140.42L4948.39 4546.81L3920.22 5140.42V6327.65L4948.39 6921.26L5976.55 6327.65V5140.42Z" fill="white"/>
<path fill-rule="evenodd" clip-rule="evenodd" d="M7497 2853.04L6126.11 2061.56L4755.22 2853.04V4436L6126.11 5227.49L7497 4436V2853.04ZM7154.28 3050.91L6126.11 2457.3L5097.95 3050.91V4238.13L6126.11 4831.75L7154.28 4238.13V3050.91Z" fill="white"/>
<path fill-rule="evenodd" clip-rule="evenodd" d="M1177.72 2374.98L2548.61 3166.47L3919.5 2374.98L3919.5 792.018L2548.61 0.534928L1177.72 792.018L1177.72 2374.98ZM1520.45 2177.11L2548.61 2770.72L3576.78 2177.11L3576.78 989.888L2548.61 396.276L1520.45 989.888L1520.45 2177.11Z" fill="white"/>
<path fill-rule="evenodd" clip-rule="evenodd" d="M-0.00259399 4464.5L1370.89 5255.98L2741.77 4464.5L2741.77 2881.53L1370.89 2090.05L-0.00259399 2881.53L-0.00259399 4464.5ZM342.722 4266.63L1370.89 4860.24L2399.05 4266.63L2399.05 3079.4L1370.89 2485.79L342.722 3079.4L342.722 4266.63Z" fill="white"/>
</svg>
