<svg width="711" height="94" viewBox="0 0 711 94" fill="none" xmlns="http://www.w3.org/2000/svg">
<path fill-rule="evenodd" clip-rule="evenodd" d="M20.904 2.39999H0.296V92.128H17.96V31.712H18.344L54.696 92.128H75.432V2.39999H57.768V64.608H57.512L20.904 2.39999ZM151.846 40H98.854V92H158.118V76.512H116.646V53.472H151.846V40ZM158.118 17H98.854V2.39999H158.118V17ZM175.319 2.39999L204.375 47.2L175.191 92H194.647L214.743 59.616H215.511L235.607 92H255.191L225.751 47.2L255.063 2.39999H235.607L215.511 34.784H214.743L194.647 2.39999H175.319ZM282.942 83.424C289.683 89.9947 298.601 93.28 309.694 93.28C320.617 93.28 329.449 89.952 336.19 83.296C342.931 76.64 346.302 66.4427 346.302 52.704V2.39999H328.766V51.68C328.766 58.6773 327.358 64.5653 324.542 69.344C321.726 74.0373 316.777 76.384 309.694 76.384C302.441 76.384 297.406 73.9947 294.59 69.216C291.859 64.4373 290.494 58.592 290.494 51.68V2.39999H272.83V52.704C272.83 66.528 276.201 76.768 282.942 83.424ZM382.09 88.928C387.295 91.744 393.482 93.152 400.65 93.152C406.965 93.152 412.597 92 417.546 89.696C422.581 87.392 426.506 84.1493 429.322 79.968C432.138 75.7013 433.546 70.8373 433.546 65.376C433.546 57.7813 431.114 52.0213 426.25 48.096C421.386 44.1707 415.669 41.4827 409.098 40.032L398.346 37.728C395.018 37.0453 392.202 35.808 389.898 34.016C387.679 32.224 386.57 29.792 386.57 26.72C386.57 23.4773 387.679 20.832 389.898 18.784C392.117 16.6507 395.189 15.584 399.114 15.584C403.893 15.584 407.349 16.9493 409.482 19.68C411.701 22.3253 412.81 25.184 412.81 28.256V28.64H432.266V28.128C432.266 23.4347 430.986 18.9973 428.426 14.816C425.951 10.6347 422.239 7.22133 417.29 4.576C412.426 1.93066 406.581 0.607994 399.754 0.607994C393.781 0.607994 388.447 1.67466 383.754 3.808C379.061 5.856 375.391 8.88533 372.746 12.896C370.101 16.8213 368.778 21.5147 368.778 26.976C368.778 35.424 371.381 41.5253 376.586 45.28C381.791 48.9493 387.21 51.3387 392.842 52.448L403.722 54.752C406.879 55.3493 409.525 56.5867 411.658 58.464C413.877 60.256 414.986 62.688 414.986 65.76C414.986 69.344 413.663 72.2027 411.018 74.336C408.458 76.4693 405.087 77.536 400.906 77.536C397.578 77.536 394.762 76.8107 392.458 75.36C390.239 73.9093 388.575 72.1173 387.466 69.984C386.442 67.7653 385.93 65.5893 385.93 63.456V62.688H366.474V63.456C366.474 68.4907 367.797 73.2693 370.442 77.792C373.087 82.3147 376.97 86.0267 382.09 88.928ZM512.076 92H523.212V2.39999H512.076V42.464H466.508V2.39999H455.5V92H466.508V51.424H512.076V92ZM557.991 82.656C564.135 89.6533 572.924 93.152 584.359 93.152C595.623 93.152 604.284 89.6533 610.343 82.656C616.487 75.5733 619.559 65.5467 619.559 52.576V2.39999H608.679V52.192C608.679 59.7867 607.058 66.7413 603.815 73.056C600.572 79.3707 594.087 82.528 584.359 82.528C574.46 82.528 567.847 79.3707 564.519 73.056C561.276 66.656 559.655 59.7013 559.655 52.192V2.39999H548.775V52.576C548.775 65.5467 551.847 75.5733 557.991 82.656ZM681.45 2.39999H645.61V92H683.498C689.642 92 694.762 90.7627 698.858 88.288C702.954 85.728 705.941 82.528 707.818 78.688C709.781 74.7627 710.762 70.6667 710.762 66.4C710.762 61.6213 709.61 57.696 707.306 54.624C705.087 51.4667 702.485 49.2053 699.498 47.84C696.597 46.3893 694.037 45.5787 691.818 45.408V44.64C693.866 44.2133 696.042 43.232 698.346 41.696C700.65 40.16 702.613 37.984 704.234 35.168C705.855 32.352 706.666 29.024 706.666 25.184C706.666 21.5147 705.855 17.9733 704.234 14.56C702.613 11.0613 699.882 8.16 696.042 5.856C692.287 3.55199 687.423 2.39999 681.45 2.39999ZM690.794 37.984C687.295 40.4587 683.114 41.696 678.25 41.696H656.362V11.744H678.25C683.37 11.744 687.594 12.896 690.922 15.2C694.335 17.504 696.042 21.1733 696.042 26.208C696.042 31.4987 694.293 35.424 690.794 37.984ZM694.506 78.816C690.837 81.376 686.229 82.656 680.682 82.656H656.362V50.4H680.682C686.229 50.4 690.837 51.6373 694.506 54.112C698.175 56.5013 700.01 60.5547 700.01 66.272C700.01 72.0747 698.175 76.256 694.506 78.816Z" fill="white"/>
</svg>
