<svg width="12218" height="9406" viewBox="0 0 12218 9406" fill="none" xmlns="http://www.w3.org/2000/svg">
<path d="M354.399 7843.8H0V9386.2H303.771V8347.67H310.374L935.526 9386.2H1292.13V7843.8H988.355V8913.14H983.953L354.399 7843.8Z" fill="black"/>
<path d="M2606.23 8490.14H1694.92V9384H2714.09V9117.76H2000.89V8721.71H2606.23V8490.14Z" fill="black"/>
<path d="M2714.09 8094.77H1694.92V7843.8H2714.09V8094.77Z" fill="black"/>
<path d="M3009.9 7843.8L3509.58 8613.9L3007.7 9384H3342.29L3687.88 8827.33H3701.09L4046.68 9384H4383.47L3877.19 8613.9L4381.27 7843.8H4046.68L3701.09 8400.47H3687.88L3342.29 7843.8H3009.9Z" fill="black"/>
<path d="M4860.71 9236.58C4976.64 9349.53 5129.99 9406 5320.77 9406C5508.61 9406 5660.49 9348.79 5776.42 9234.38C5892.36 9119.96 5950.32 8944.68 5950.32 8708.51V7843.8H5648.75V8690.91C5648.75 8811.19 5624.54 8912.4 5576.11 8994.55C5527.68 9075.23 5442.57 9115.56 5320.77 9115.56C5196.03 9115.56 5109.45 9074.49 5061.02 8992.35C5014.06 8910.2 4990.58 8809.73 4990.58 8690.91V7843.8H4686.81V8708.51C4686.81 8946.14 4744.78 9122.16 4860.71 9236.58Z" fill="black"/>
<path d="M6565.77 9331.19C6655.29 9379.6 6761.68 9403.8 6884.95 9403.8C6993.55 9403.8 7090.4 9384 7175.52 9344.39C7262.1 9304.79 7329.6 9249.05 7378.03 9177.17C7426.46 9103.83 7450.67 9020.22 7450.67 8926.34C7450.67 8795.79 7408.85 8696.78 7325.2 8629.3C7241.55 8561.83 7143.23 8515.62 7030.23 8490.69L6845.33 8451.08C6788.1 8439.35 6739.67 8418.08 6700.05 8387.27C6661.89 8356.47 6642.82 8314.66 6642.82 8261.86C6642.82 8206.12 6661.89 8160.64 6700.05 8125.44C6738.2 8088.77 6791.03 8070.43 6858.54 8070.43C6940.72 8070.43 7000.15 8093.9 7036.84 8140.84C7074.99 8186.31 7094.07 8235.45 7094.07 8288.26V8294.86H7428.66V8286.06C7428.66 8205.38 7406.65 8129.11 7362.62 8057.23C7320.06 7985.36 7256.23 7926.68 7171.11 7881.21C7087.47 7835.74 6986.94 7813 6869.54 7813C6766.82 7813 6675.1 7831.34 6594.39 7868.01C6513.68 7903.21 6450.58 7955.28 6405.08 8024.23C6359.59 8091.7 6336.84 8172.38 6336.84 8266.26C6336.84 8411.48 6381.6 8516.36 6471.12 8580.9C6560.64 8643.97 6653.82 8685.04 6750.68 8704.11L6937.78 8743.72C6992.08 8753.98 7037.57 8775.25 7074.26 8807.52C7112.41 8838.33 7131.49 8880.13 7131.49 8932.94C7131.49 8994.55 7108.75 9043.69 7063.25 9080.36C7019.23 9117.03 6961.26 9135.37 6889.36 9135.37C6832.12 9135.37 6783.7 9122.9 6744.07 9097.96C6705.92 9073.02 6677.3 9042.22 6658.23 9005.55C6640.62 8967.41 6631.81 8930.01 6631.81 8893.34V8880.13H6297.22V8893.34C6297.22 8979.88 6319.97 9062.02 6365.46 9139.77C6410.95 9217.51 6477.72 9281.32 6565.77 9331.19Z" fill="black"/>
<path d="M8801.16 9384H8992.67V7843.8H8801.16V8532.49H8017.52V7843.8H7828.22V9384H8017.52V8686.51H8801.16V9384Z" fill="black"/>
<path d="M9590.77 9223.38C9696.43 9343.66 9847.58 9403.8 10044.2 9403.8C10237.9 9403.8 10386.9 9343.66 10491.1 9223.38C10596.7 9101.63 10649.6 8929.27 10649.6 8706.31V7843.8H10462.5V8699.71C10462.5 8830.26 10434.6 8949.81 10378.8 9058.36C10323.1 9166.9 10211.5 9221.18 10044.2 9221.18C9874 9221.18 9760.27 9166.9 9703.04 9058.36C9647.27 8948.34 9619.39 8828.79 9619.39 8699.71V7843.8H9432.28V8706.31C9432.28 8929.27 9485.11 9101.63 9590.77 9223.38Z" fill="black"/>
<path fill-rule="evenodd" clip-rule="evenodd" d="M11713.9 7843.8H11097.6V9384H11749.1C11854.8 9384 11942.8 9362.73 12013.3 9320.19C12083.7 9276.18 12135.1 9221.18 12167.4 9155.17C12201.1 9087.69 12218 9017.28 12218 8943.94C12218 8861.8 12198.2 8794.32 12158.6 8741.52C12120.4 8687.24 12075.7 8648.37 12024.3 8624.9C11974.4 8599.97 11930.4 8586.03 11892.2 8583.1V8569.9C11927.4 8562.56 11964.9 8545.69 12004.5 8519.29C12044.1 8492.89 12077.9 8455.48 12105.7 8407.07C12133.6 8358.67 12147.6 8301.46 12147.6 8235.45C12147.6 8172.38 12133.6 8111.5 12105.7 8052.83C12077.9 7992.69 12030.9 7942.82 11964.9 7903.21C11900.3 7863.61 11816.6 7843.8 11713.9 7843.8ZM11874.6 8455.48C11814.4 8498.02 11742.5 8519.29 11658.9 8519.29H11282.5V8004.42H11658.9C11746.9 8004.42 11819.6 8024.23 11876.8 8063.83C11935.5 8103.44 11964.9 8166.51 11964.9 8253.06C11964.9 8344 11934.8 8411.48 11874.6 8455.48ZM11938.4 9157.37C11875.3 9201.37 11796.1 9223.38 11700.7 9223.38H11282.5V8668.91H11700.7C11796.1 8668.91 11875.3 8690.18 11938.4 8732.72C12001.5 8773.79 12033.1 8843.46 12033.1 8941.74C12033.1 9041.49 12001.5 9113.36 11938.4 9157.37Z" fill="black"/>
<path fill-rule="evenodd" clip-rule="evenodd" d="M7466.26 2839.13L6109.33 2055.7L4752.4 2839.13V4405.97L6109.33 5189.39L7466.26 4405.97V2839.13ZM7127.03 3034.98L6109.33 2447.41L5091.64 3034.98V4210.12L6109.33 4797.68L7127.03 4210.12V3034.98Z" fill="black"/>
<path fill-rule="evenodd" clip-rule="evenodd" d="M5940.07 2350.27L7297 3133.69L8653.93 2350.27V783.423L7297 0.000195277L5940.07 783.423V2350.27ZM6279.3 2154.41L7297 2741.98L8314.7 2154.41V979.279L7297 391.712L6279.3 979.279V2154.41Z" fill="black"/>
<path fill-rule="evenodd" clip-rule="evenodd" d="M6278.59 4891.69L4921.66 4108.27L3564.73 4891.69V6458.54L4921.66 7241.96L6278.59 6458.54V4891.69ZM5939.36 5087.55L4921.66 4499.98L3903.97 5087.55V6262.68L4921.66 6850.25L5939.36 6262.68V5087.55Z" fill="black"/>
<path fill-rule="evenodd" clip-rule="evenodd" d="M8653.93 4891.69L7297 4108.27L5940.07 4891.69V6458.54L7297 7241.96L8653.93 6458.54V4891.69ZM8314.7 5087.55L7297 4499.98L6279.3 5087.55V6262.68L7297 6850.25L8314.7 6262.68V5087.55Z" fill="black"/>
<path fill-rule="evenodd" clip-rule="evenodd" d="M9819.66 2823.46L8462.73 2040.03L7105.81 2823.46V4390.3L8462.73 5173.73L9819.66 4390.3V2823.46ZM9480.43 3019.31L8462.73 2431.75L7445.04 3019.31V4194.45L8462.73 4782.02L9480.43 4194.45V3019.31Z" fill="black"/>
<path fill-rule="evenodd" clip-rule="evenodd" d="M3564.73 2350.27L4921.66 3133.69L6278.59 2350.27V783.423L4921.66 0.000195277L3564.73 783.423L3564.73 2350.27ZM3903.97 2154.41L4921.66 2741.98L5939.36 2154.41V979.279L4921.66 391.712L3903.97 979.279L3903.97 2154.41Z" fill="black"/>
<path fill-rule="evenodd" clip-rule="evenodd" d="M2399 4418.51L3755.93 5201.93L5112.86 4418.51V2851.66L3755.93 2068.24L2399 2851.66L2399 4418.51ZM2738.23 4222.65L3755.93 4810.22L4773.62 4222.65V3047.52L3755.93 2459.95L2738.23 3047.52L2738.23 4222.65Z" fill="black"/>
</svg>
