<svg width="12218" height="9481" viewBox="0 0 12218 9481" fill="none" xmlns="http://www.w3.org/2000/svg">
<path d="M354.399 7918.8H0V9461.2H303.771V8422.67H310.374L935.526 9461.2H1292.13V7918.8H988.355V8988.14H983.953L354.399 7918.8Z" fill="white"/>
<path d="M2606.23 8565.14H1694.92V9459H2714.09V9192.76H2000.89V8796.71H2606.23V8565.14Z" fill="white"/>
<path d="M2714.09 8169.77H1694.92V7918.8H2714.09V8169.77Z" fill="white"/>
<path d="M3009.9 7918.8L3509.58 8688.9L3007.7 9459H3342.29L3687.88 8902.33H3701.09L4046.68 9459H4383.47L3877.19 8688.9L4381.27 7918.8H4046.68L3701.09 8475.47H3687.88L3342.29 7918.8H3009.9Z" fill="white"/>
<path d="M4860.71 9311.58C4976.64 9424.53 5129.99 9481 5320.77 9481C5508.61 9481 5660.49 9423.79 5776.42 9309.38C5892.36 9194.96 5950.32 9019.68 5950.32 8783.51V7918.8H5648.75V8765.91C5648.75 8886.19 5624.54 8987.4 5576.11 9069.55C5527.68 9150.23 5442.57 9190.56 5320.77 9190.56C5196.03 9190.56 5109.45 9149.49 5061.02 9067.35C5014.06 8985.2 4990.58 8884.73 4990.58 8765.91V7918.8H4686.81V8783.51C4686.81 9021.14 4744.78 9197.16 4860.71 9311.58Z" fill="white"/>
<path d="M6565.77 9406.19C6655.29 9454.6 6761.68 9478.8 6884.95 9478.8C6993.55 9478.8 7090.4 9459 7175.52 9419.39C7262.1 9379.79 7329.6 9324.05 7378.03 9252.17C7426.46 9178.83 7450.67 9095.22 7450.67 9001.34C7450.67 8870.79 7408.85 8771.78 7325.2 8704.3C7241.55 8636.83 7143.23 8590.62 7030.23 8565.69L6845.33 8526.08C6788.1 8514.35 6739.67 8493.08 6700.05 8462.27C6661.89 8431.47 6642.82 8389.66 6642.82 8336.86C6642.82 8281.12 6661.89 8235.64 6700.05 8200.44C6738.2 8163.77 6791.03 8145.43 6858.54 8145.43C6940.72 8145.43 7000.15 8168.9 7036.84 8215.84C7074.99 8261.31 7094.07 8310.45 7094.07 8363.26V8369.86H7428.66V8361.06C7428.66 8280.38 7406.65 8204.11 7362.62 8132.23C7320.06 8060.36 7256.23 8001.68 7171.11 7956.21C7087.47 7910.74 6986.94 7888 6869.54 7888C6766.82 7888 6675.1 7906.34 6594.39 7943.01C6513.68 7978.21 6450.58 8030.28 6405.08 8099.23C6359.59 8166.7 6336.84 8247.38 6336.84 8341.26C6336.84 8486.48 6381.6 8591.36 6471.12 8655.9C6560.64 8718.97 6653.82 8760.04 6750.68 8779.11L6937.78 8818.72C6992.08 8828.98 7037.57 8850.25 7074.26 8882.52C7112.41 8913.33 7131.49 8955.13 7131.49 9007.94C7131.49 9069.55 7108.75 9118.69 7063.25 9155.36C7019.23 9192.03 6961.26 9210.37 6889.36 9210.37C6832.12 9210.37 6783.7 9197.9 6744.07 9172.96C6705.92 9148.02 6677.3 9117.22 6658.23 9080.55C6640.62 9042.41 6631.81 9005.01 6631.81 8968.34V8955.13H6297.22V8968.34C6297.22 9054.88 6319.97 9137.02 6365.46 9214.77C6410.95 9292.51 6477.72 9356.32 6565.77 9406.19Z" fill="white"/>
<path d="M8801.16 9459H8992.67V7918.8H8801.16V8607.49H8017.52V7918.8H7828.22V9459H8017.52V8761.51H8801.16V9459Z" fill="white"/>
<path d="M9590.77 9298.38C9696.43 9418.66 9847.58 9478.8 10044.2 9478.8C10237.9 9478.8 10386.9 9418.66 10491.1 9298.38C10596.7 9176.63 10649.6 9004.27 10649.6 8781.31V7918.8H10462.5V8774.71C10462.5 8905.26 10434.6 9024.81 10378.8 9133.36C10323.1 9241.9 10211.5 9296.18 10044.2 9296.18C9874 9296.18 9760.27 9241.9 9703.04 9133.36C9647.27 9023.34 9619.39 8903.79 9619.39 8774.71V7918.8H9432.28V8781.31C9432.28 9004.27 9485.11 9176.63 9590.77 9298.38Z" fill="white"/>
<path fill-rule="evenodd" clip-rule="evenodd" d="M11713.9 7918.8H11097.6V9459H11749.1C11854.8 9459 11942.8 9437.73 12013.3 9395.19C12083.7 9351.18 12135.1 9296.18 12167.4 9230.17C12201.1 9162.69 12218 9092.28 12218 9018.94C12218 8936.8 12198.2 8869.32 12158.6 8816.52C12120.4 8762.24 12075.7 8723.37 12024.3 8699.9C11974.4 8674.97 11930.4 8661.03 11892.2 8658.1V8644.9C11927.4 8637.56 11964.9 8620.69 12004.5 8594.29C12044.1 8567.89 12077.9 8530.48 12105.7 8482.07C12133.6 8433.67 12147.6 8376.46 12147.6 8310.45C12147.6 8247.38 12133.6 8186.5 12105.7 8127.83C12077.9 8067.69 12030.9 8017.82 11964.9 7978.21C11900.3 7938.61 11816.6 7918.8 11713.9 7918.8ZM11874.6 8530.48C11814.4 8573.02 11742.5 8594.29 11658.9 8594.29H11282.5V8079.42H11658.9C11746.9 8079.42 11819.6 8099.23 11876.8 8138.83C11935.5 8178.44 11964.9 8241.51 11964.9 8328.06C11964.9 8419 11934.8 8486.48 11874.6 8530.48ZM11938.4 9232.37C11875.3 9276.37 11796.1 9298.38 11700.7 9298.38H11282.5V8743.91H11700.7C11796.1 8743.91 11875.3 8765.18 11938.4 8807.72C12001.5 8848.79 12033.1 8918.46 12033.1 9016.74C12033.1 9116.49 12001.5 9188.36 11938.4 9232.37Z" fill="white"/>
<path fill-rule="evenodd" clip-rule="evenodd" d="M7479.39 2868.87L6108.5 2077.39L4737.61 2868.87V4451.83L6108.5 5243.32L7479.39 4451.83V2868.87ZM7136.67 3066.74L6108.5 2473.13L5080.33 3066.74V4253.96L6108.5 4847.57L7136.67 4253.96V3066.74Z" fill="white"/>
<path fill-rule="evenodd" clip-rule="evenodd" d="M5937.5 2374.98L7308.39 3166.47L8679.28 2374.98V792.018L7308.39 0.534928L5937.5 792.018V2374.98ZM6280.22 2177.11L7308.39 2770.72L8336.55 2177.11V989.888L7308.39 396.276L6280.22 989.888V2177.11Z" fill="white"/>
<path fill-rule="evenodd" clip-rule="evenodd" d="M6279.5 4942.55L4908.61 4151.07L3537.72 4942.55V6525.52L4908.61 7317L6279.5 6525.52V4942.55ZM5936.78 5140.42L4908.61 4546.81L3880.45 5140.42V6327.65L4908.61 6921.26L5936.78 6327.65V5140.42Z" fill="white"/>
<path fill-rule="evenodd" clip-rule="evenodd" d="M8679.28 4942.55L7308.39 4151.07L5937.5 4942.55V6525.52L7308.39 7317L8679.28 6525.52V4942.55ZM8336.55 5140.42L7308.39 4546.81L6280.22 5140.42V6327.65L7308.39 6921.26L8336.55 6327.65V5140.42Z" fill="white"/>
<path fill-rule="evenodd" clip-rule="evenodd" d="M9857 2853.04L8486.11 2061.56L7115.22 2853.04V4436L8486.11 5227.49L9857 4436V2853.04ZM9514.28 3050.91L8486.11 2457.3L7457.95 3050.91V4238.13L8486.11 4831.75L9514.28 4238.13V3050.91Z" fill="white"/>
<path fill-rule="evenodd" clip-rule="evenodd" d="M3537.72 2374.98L4908.61 3166.47L6279.5 2374.98V792.018L4908.61 0.534928L3537.72 792.018L3537.72 2374.98ZM3880.45 2177.11L4908.61 2770.72L5936.78 2177.11V989.888L4908.61 396.276L3880.45 989.888L3880.45 2177.11Z" fill="white"/>
<path fill-rule="evenodd" clip-rule="evenodd" d="M2360 4464.5L3730.89 5255.98L5101.77 4464.5V2881.53L3730.89 2090.05L2360 2881.53L2360 4464.5ZM2702.72 4266.63L3730.89 4860.24L4759.05 4266.63V3079.4L3730.89 2485.79L2702.72 3079.4L2702.72 4266.63Z" fill="white"/>
</svg>
