<svg width="16248" height="3528" viewBox="0 0 16248 3528" fill="none" xmlns="http://www.w3.org/2000/svg">
<path d="M4384.4 997.805H4030V2540.2H4333.77V1501.67H4340.37L4965.53 2540.2H5322.13V997.805H5018.36V2067.14H5013.95L4384.4 997.805Z" fill="white"/>
<path d="M6636.23 1644.14H5724.92V2538H6744.09V2271.76H6030.89V1875.72H6636.23V1644.14Z" fill="white"/>
<path d="M6744.09 1248.77H5724.92V997.805H6744.09V1248.77Z" fill="white"/>
<path d="M7039.9 997.805L7539.58 1767.9L7037.7 2538H7372.29L7717.88 1981.33H7731.09L8076.68 2538H8413.47L7907.19 1767.9L8411.27 997.805H8076.68L7731.09 1554.47H7717.88L7372.29 997.805H7039.9Z" fill="white"/>
<path d="M8890.71 2390.58C9006.64 2503.53 9159.99 2560 9350.77 2560C9538.61 2560 9690.49 2502.79 9806.42 2388.38C9922.36 2273.97 9980.32 2098.68 9980.32 1862.51V997.805H9678.75V1844.91C9678.75 1965.19 9654.54 2066.41 9606.11 2148.55C9557.68 2229.23 9472.57 2269.56 9350.77 2269.56C9226.03 2269.56 9139.45 2228.49 9091.02 2146.35C9044.06 2064.21 9020.58 1963.73 9020.58 1844.91V997.805H8716.81V1862.51C8716.81 2100.14 8774.78 2276.17 8890.71 2390.58Z" fill="white"/>
<path d="M10595.8 2485.19C10685.3 2533.6 10791.7 2557.8 10915 2557.8C11023.5 2557.8 11120.4 2538 11205.5 2498.39C11292.1 2458.79 11359.6 2403.05 11408 2331.17C11456.5 2257.83 11480.7 2174.22 11480.7 2080.34C11480.7 1949.79 11438.8 1850.78 11355.2 1783.3C11271.6 1715.83 11173.2 1669.62 11060.2 1644.69L10875.3 1605.08C10818.1 1593.35 10769.7 1572.08 10730 1541.27C10691.9 1510.47 10672.8 1468.66 10672.8 1415.86C10672.8 1360.12 10691.9 1314.64 10730 1279.44C10768.2 1242.77 10821 1224.43 10888.5 1224.43C10970.7 1224.43 11030.2 1247.9 11066.8 1294.84C11105 1340.31 11124.1 1389.45 11124.1 1442.26V1448.86H11458.7V1440.06C11458.7 1359.38 11436.6 1283.11 11392.6 1211.23C11350.1 1139.36 11286.2 1080.68 11201.1 1035.21C11117.5 989.737 11016.9 967.001 10899.5 967.001C10796.8 967.001 10705.1 985.337 10624.4 1022.01C10543.7 1057.21 10480.6 1109.29 10435.1 1178.23C10389.6 1245.7 10366.8 1326.38 10366.8 1420.26C10366.8 1565.48 10411.6 1670.36 10501.1 1734.9C10590.6 1797.97 10683.8 1839.04 10780.7 1858.11L10967.8 1897.72C11022.1 1907.99 11067.6 1929.26 11104.3 1961.53C11142.4 1992.33 11161.5 2034.13 11161.5 2086.94C11161.5 2148.55 11138.7 2197.69 11093.3 2234.36C11049.2 2271.03 10991.3 2289.37 10919.4 2289.37C10862.1 2289.37 10813.7 2276.9 10774.1 2251.96C10735.9 2227.03 10707.3 2196.22 10688.2 2159.55C10670.6 2121.41 10661.8 2084.01 10661.8 2047.34V2034.13H10327.2V2047.34C10327.2 2133.88 10350 2216.02 10395.5 2293.77C10441 2371.51 10507.7 2435.32 10595.8 2485.19Z" fill="white"/>
<path d="M12831.2 2538H13022.7V997.805H12831.2V1686.49H12047.5V997.805H11858.2V2538H12047.5V1840.51H12831.2V2538Z" fill="white"/>
<path d="M13620.8 2377.38C13726.4 2497.66 13877.6 2557.8 14074.2 2557.8C14267.9 2557.8 14416.9 2497.66 14521.1 2377.38C14626.7 2255.63 14679.6 2083.27 14679.6 1860.31V997.805H14492.5V1853.71C14492.5 1984.26 14464.6 2103.81 14408.8 2212.36C14353.1 2320.9 14241.5 2375.18 14074.2 2375.18C13904 2375.18 13790.3 2320.9 13733 2212.36C13677.3 2102.34 13649.4 1982.8 13649.4 1853.71V997.805H13462.3V1860.31C13462.3 2083.27 13515.1 2255.63 13620.8 2377.38Z" fill="white"/>
<path fill-rule="evenodd" clip-rule="evenodd" d="M15743.9 997.805H15127.6V2538H15779.1C15884.8 2538 15972.8 2516.73 16043.3 2474.19C16113.7 2430.18 16165.1 2375.18 16197.4 2309.17C16231.1 2241.69 16248 2171.29 16248 2097.94C16248 2015.8 16228.2 1948.32 16188.6 1895.52C16150.4 1841.24 16105.7 1802.37 16054.3 1778.9C16004.4 1753.97 15960.4 1740.03 15922.2 1737.1V1723.9C15957.4 1716.56 15994.9 1699.69 16034.5 1673.29C16074.1 1646.89 16107.9 1609.48 16135.7 1561.08C16163.6 1512.67 16177.6 1455.46 16177.6 1389.45C16177.6 1326.38 16163.6 1265.51 16135.7 1206.83C16107.9 1146.69 16060.9 1096.82 15994.9 1057.21C15930.3 1017.61 15846.6 997.805 15743.9 997.805ZM15904.6 1609.48C15844.4 1652.02 15772.5 1673.29 15688.9 1673.29H15312.5V1158.43H15688.9C15776.9 1158.43 15849.6 1178.23 15906.8 1217.83C15965.5 1257.44 15994.9 1320.51 15994.9 1407.06C15994.9 1498 15964.8 1565.48 15904.6 1609.48ZM15968.4 2311.37C15905.3 2355.38 15826.1 2377.38 15730.7 2377.38H15312.5V1822.91H15730.7C15826.1 1822.91 15905.3 1844.18 15968.4 1886.72C16031.5 1927.79 16063.1 1997.46 16063.1 2095.74C16063.1 2195.49 16031.5 2267.36 15968.4 2311.37Z" fill="white"/>
<path fill-rule="evenodd" clip-rule="evenodd" d="M2468.53 1383.09L1807.5 1001.44L1146.47 1383.09V2146.38L1807.5 2528.03L2468.53 2146.38V1383.09ZM2303.27 1478.5L1807.5 1192.26L1311.73 1478.5V2050.97L1807.5 2337.21L2303.27 2050.97V1478.5Z" fill="white"/>
<path fill-rule="evenodd" clip-rule="evenodd" d="M1725.05 1144.94L2386.08 1526.59L3047.11 1144.94V381.647L2386.08 -0.000244141L1725.05 381.647L1725.05 1144.94ZM1890.3 1049.53L2386.08 1335.76L2881.85 1049.53V477.058L2386.08 190.823L1890.3 477.058L1890.3 1049.53Z" fill="white"/>
<path fill-rule="evenodd" clip-rule="evenodd" d="M1889.95 2383L1228.92 2001.36L567.891 2383V3146.3L1228.92 3527.95L1889.95 3146.3V2383ZM1724.7 2478.42L1228.92 2192.18L733.149 2478.42V3050.89L1228.92 3337.12L1724.7 3050.89V2478.42Z" fill="white"/>
<path fill-rule="evenodd" clip-rule="evenodd" d="M3047.11 2383L2386.08 2001.36L1725.04 2383V3146.3L2386.08 3527.95L3047.11 3146.3V2383ZM2881.85 2478.42L2386.08 2192.18L1890.3 2478.42V3050.89L2386.08 3337.12L2881.85 3050.89V2478.42Z" fill="white"/>
<path fill-rule="evenodd" clip-rule="evenodd" d="M3615 1375.46L2953.97 993.81L2292.94 1375.46V2138.75L2953.97 2520.4L3615 2138.75V1375.46ZM3449.74 1470.87L2953.97 1184.63L2458.19 1470.87V2043.34L2953.97 2329.57L3449.74 2043.34V1470.87Z" fill="white"/>
<path fill-rule="evenodd" clip-rule="evenodd" d="M567.891 1144.94L1228.92 1526.59L1889.96 1144.94L1889.96 381.647L1228.92 -0.000244141L567.891 381.647L567.891 1144.94ZM733.149 1049.53L1228.92 1335.76L1724.7 1049.53L1724.7 477.058L1228.92 190.823L733.149 477.058L733.149 1049.53Z" fill="white"/>
<path fill-rule="evenodd" clip-rule="evenodd" d="M0.000244141 2152.49L661.032 2534.14L1322.06 2152.49L1322.06 1389.19L661.032 1007.55L0.000244141 1389.19L0.000244141 2152.49ZM165.258 2057.08L661.032 2343.31L1156.81 2057.08L1156.81 1484.61L661.032 1198.37L165.258 1484.61L165.258 2057.08Z" fill="white"/>
</svg>
